<?xml version="1.0" standalone="no"?><svg xmlns="http://www.w3.org/2000/svg" viewBox="0 0 1440 320"><path fill="#ff304f" fill-opacity="1" d="M0,320L21.8,272C43.6,224,87,128,131,122.7C174.5,117,218,203,262,250.7C305.5,299,349,309,393,272C436.4,235,480,149,524,144C567.3,139,611,213,655,245.3C698.2,277,742,267,785,234.7C829.1,203,873,149,916,144C960,139,1004,181,1047,192C1090.9,203,1135,181,1178,170.7C1221.8,160,1265,160,1309,149.3C1352.7,139,1396,117,1418,106.7L1440,96L1440,320L1418.2,320C1396.4,320,1353,320,1309,320C1265.5,320,1222,320,1178,320C1134.5,320,1091,320,1047,320C1003.6,320,960,320,916,320C872.7,320,829,320,785,320C741.8,320,698,320,655,320C610.9,320,567,320,524,320C480,320,436,320,393,320C349.1,320,305,320,262,320C218.2,320,175,320,131,320C87.3,320,44,320,22,320L0,320Z"></path></svg>